# xmcd
#
# Track frame offsets:
#	150
#	17519
#	36067
#	53610
#	71861
#	87486
#	102134
#	117332
#	137415
#	148936
#	163581
#	178268
#	196452
#	211162
#
# Disc length: 3146 seconds
#
# Revision: 0
# Processed by: cddbd v1.4PL0 Copyright (c) Steve Scherf et al.
# Submitted via: dBpowerAMP V4.0
#
DISCID=c60c480e
DTITLE=Smiling Jack Smith - Three Seconds To Love Me
DYEAR=2002
DGENRE=Blues
TTITLE0=99 Years
TTITLE1=In Dreams
TTITLE2=Three Seconds To Love Me
TTITLE3=Every Night At Twilight Comes The Blues
TTITLE4=God Made The Blues On Friday Night
TTITLE5=Take Advantage Of Me
TTITLE6=The Blues Come Knockin'
TTITLE7=A Way To Get By
TTITLE8=Richest Man
TTITLE9=Small Town Blues
TTITLE10=Loser's Blues
TTITLE11=Blues In The Heat Of The Night
TTITLE12=A Song For Antonio Serrano
TTITLE13=Yeah! Yeah! No! No!
EXTD=
EXTT0=
EXTT1=
EXTT2=
EXTT3=
EXTT4=
EXTT5=
EXTT6=
EXTT7=
EXTT8=
EXTT9=
EXTT10=
EXTT11=
EXTT12=
EXTT13=
PLAYORDER=
